<svg xmlns="http://www.w3.org/2000/svg" width="29.534" height="47.582" viewBox="0 0 29.534 47.582"><g transform="translate(-97.103 0.001)"><path d="M97.1,32.814A14.767,14.767,0,0,0,111.87,47.581h0a14.767,14.767,0,0,0,14.767-14.767c0-8.2-4.1-14.767-1.35-20.51,0,0-4.393.82-6.854,7.383,0,0-8.2-8.2-4.776-19.689,0,0-8.35,3.281-7.477,13.946.749,9.145-.873,10.665-.873,10.665a12.6,12.6,0,0,0-5.773-10.665C101.2,22.97,97.1,25.431,97.1,32.814Z" fill="#ffb446"/><path d="M170.245,188.449c0,6.142-4.743,11.386-10.884,11.267-5.779-.111-10.079-4.509-9.62-10.253.205-2.564,2.153-6.717,5.332-10.921l2.119,1.282c-.068-5.2,2.393-12.1,2.393-12.1C161.2,175,170.245,176.885,170.245,188.449Z" transform="translate(-47.716 -152.138)" fill="#ffdc64"/><path d="M187.84,287.405c-.82,4.922-2.461,6.714-2.461,9.845a6.794,6.794,0,0,0,6.563,6.563h0a6.584,6.584,0,0,0,6.563-6.634c-.027-9.805-5.743-14.7-5.743-14.7.82,4.922-1.641,7.383-1.641,7.383A8.335,8.335,0,0,0,187.84,287.405Z" transform="translate(-80.072 -256.232)" fill="#fff"/></g></svg>