<svg xmlns="http://www.w3.org/2000/svg" width="23.136" height="23.136" viewBox="0 0 23.136 23.136"><path d="M312.566,404.733a7.469,7.469,0,0,1,6.388-.848c4.587,1.553,6.012,6.8,4.737,10.981-1.965,6.561-10.358,11.454-10.714,11.66a.811.811,0,0,1-.813,0c-.354-.2-8.686-5.025-10.717-11.662h0c-1.274-4.179.145-9.43,4.728-10.981A7.3,7.3,0,0,1,312.566,404.733Zm-5.873.847c-3.708,1.254-4.639,5.442-3.632,8.744,1.585,5.176,7.844,9.359,9.508,10.4,1.669-1.046,7.973-5.277,9.507-10.39,1.007-3.305.072-7.492-3.641-8.749a5.746,5.746,0,0,0-5.347.94.817.817,0,0,1-1.029.007A5.688,5.688,0,0,0,306.694,405.58Z" transform="translate(-301 -403.5)" fill="#fff" fill-rule="evenodd"/></svg>