<svg xmlns="http://www.w3.org/2000/svg" width="143.602" height="182.618" viewBox="0 0 143.602 182.618"><g transform="translate(-53.252 0)"><path d="M164.324,336.285H85.782L53.252,242.5h143.6Z" transform="translate(0 -153.667)" fill="#2d9eaa"/><path d="M57.252,242.5H199.389l-32.53,93.781" transform="translate(-2.535 -153.667)" fill="#18899b"/><path d="M191.556,336.285H137.632L115.652,242.5h97.884Z" transform="translate(-39.541 -153.667)" fill="#99ccce"/><path d="M121.252,242.5h95.833L195.1,336.285" transform="translate(-43.089 -153.667)" fill="#88bcbc"/><path d="M226.852,336.285h-21.1l-8.5-93.781h38.1Z" transform="translate(-91.248 -153.667)" fill="#18899b"/><path d="M225.093,336.285H205.751l-8.5-93.781" transform="translate(-91.248 -153.667)" fill="#2d9eaa"/><path d="M196.854,206.512H53.252L63.216,185.7,187.183,186Z" transform="translate(0 -117.675)" fill="#0a6077"/><path d="M197.464,207.019H86.1L79.652,186.5h124.26Z" transform="translate(-16.729 -118.182)" fill="#02445b"/><path d="M223.129,355.533H182.1L175.652,314.5h53.924Z" transform="translate(-77.561 -199.291)" fill="#efd27f"/><path d="M177.252,314.5H230.59l-5.861,39.271" transform="translate(-78.575 -199.291)" fill="#e2b544"/><g transform="translate(105.125 120.488)"><circle cx="2.345" cy="2.345" r="2.345" fill="#0a6077"/><circle cx="2.345" cy="2.345" r="2.345" transform="translate(8.792)" fill="#0a6077"/><circle cx="2.345" cy="2.345" r="2.345" transform="translate(17.584)" fill="#0a6077"/><circle cx="2.345" cy="2.345" r="2.345" transform="translate(26.376)" fill="#0a6077"/><circle cx="2.345" cy="2.345" r="2.345" transform="translate(35.168)" fill="#0a6077"/><path d="M205.355,407.755A2.051,2.051,0,1,1,203.3,405.7,2,2,0,0,1,205.355,407.755Z" transform="translate(-198.907 -377.57)" fill="#0a6077"/><circle cx="2.051" cy="2.051" r="2.051" transform="translate(10.257 28.134)" fill="#0a6077"/><circle cx="2.051" cy="2.051" r="2.051" transform="translate(17.877 28.134)" fill="#0a6077"/><circle cx="2.051" cy="2.051" r="2.051" transform="translate(25.497 28.134)" fill="#0a6077"/><circle cx="2.051" cy="2.051" r="2.051" transform="translate(33.41 28.134)" fill="#0a6077"/></g><path d="M147.856,171.581a7.924,7.924,0,0,0-14.946,4.689,8.056,8.056,0,0,0-4.982,9.671,7.794,7.794,0,0,0,9.964,5.275,7.493,7.493,0,0,0,5.568-6.741,8.345,8.345,0,0,0,8.5,2.638,7.794,7.794,0,0,0,5.275-9.964A7.486,7.486,0,0,0,147.856,171.581Z" transform="translate(-47.127 -105.896)" fill="#efd27f"/><g transform="translate(90.764 60.927)"><path d="M155.652,197.822a7.493,7.493,0,0,0,5.568-6.741,8.345,8.345,0,0,0,8.5,2.638,7.794,7.794,0,0,0,5.275-9.964,7.944,7.944,0,0,0-9.378-5.568" transform="translate(-155.652 -173.722)" fill="#e2b544"/><path d="M162.234,183.676a8.345,8.345,0,0,0,8.5,2.638,7.794,7.794,0,0,0,5.275-9.964,7.944,7.944,0,0,0-9.378-5.568,7.784,7.784,0,0,0-9.378-4.1" transform="translate(-156.666 -166.317)" fill="#e2b544"/></g><g transform="translate(82.84 62.971)"><path d="M137.841,196.515c.586.586.293,1.758-.586,3.224-.879,1.172-2.345,2.051-2.931,1.465s-.293-1.758.586-3.224S137.255,195.929,137.841,196.515Z" transform="translate(-134.02 -187.354)" fill="#fff0b0"/><path d="M150.055,171.972c.586.293.293,1.465-.586,2.638s-2.051,1.758-2.345,1.172c-.586-.293-.293-1.465.586-2.638C148.59,172.265,149.469,171.679,150.055,171.972Z" transform="translate(-142.131 -171.896)" fill="#fff0b0"/></g><path d="M330.986,8.83a8,8,0,0,0-15.239-4.1,8.209,8.209,0,0,0-9.378,5.568,7.875,7.875,0,0,0,5.568,9.671,7.692,7.692,0,0,0,8.206-2.638A8.218,8.218,0,0,0,326,23.776a7.744,7.744,0,0,0,9.671-5.568C337.433,14.4,335.089,10.3,330.986,8.83Z" transform="translate(-160.214)" fill="#efd27f"/><g transform="translate(152.015 0.331)"><path d="M322.852,35.534a7.692,7.692,0,0,0,8.206-2.638,8.218,8.218,0,0,0,5.861,6.447,7.744,7.744,0,0,0,9.671-5.568,8.056,8.056,0,0,0-4.982-9.671" transform="translate(-322.852 -15.605)" fill="#e2b544"/><path d="M346.052,18.195a8.218,8.218,0,0,0,5.861,6.447,7.744,7.744,0,0,0,9.671-5.568A8.056,8.056,0,0,0,356.6,9.4,7.992,7.992,0,0,0,350.741.9" transform="translate(-337.553 -0.904)" fill="#e2b544"/></g><g transform="translate(149.919 1.018)"><path d="M322.742,17.664c.293.586-.879,1.758-2.345,2.345s-2.931.586-3.224-.293c-.293-.586.879-1.758,2.345-2.345C320.984,17.078,322.449,17.078,322.742,17.664Z" transform="translate(-317.129 -11.903)" fill="#fff0b0"/><path d="M346.137,3.264c.293.586-.586,1.465-2.051,2.051-1.172.586-2.638.293-2.931-.293s.586-1.465,2.051-2.051C344.672,2.678,345.844,2.678,346.137,3.264Z" transform="translate(-332.318 -2.779)" fill="#fff0b0"/></g><path d="M214.161,15.47a5.986,5.986,0,0,0-7.034-2.345,5.557,5.557,0,0,0-3.224,6.447,5.615,5.615,0,0,0-2.638,7.327,5.488,5.488,0,0,0,7.327,2.931,5.789,5.789,0,0,0,3.517-5.275,5.874,5.874,0,0,0,6.154,1.172,5.488,5.488,0,0,0,2.931-7.327A5.794,5.794,0,0,0,214.161,15.47Z" transform="translate(-93.504 -8.105)" fill="#efd27f"/><g transform="translate(113.624 4.686)"><path d="M222.052,33.515a5.789,5.789,0,0,0,3.517-5.275,5.874,5.874,0,0,0,6.154,1.172,5.488,5.488,0,0,0,2.931-7.327,5.814,5.814,0,0,0-7.034-3.224" transform="translate(-220.587 -16.476)" fill="#e2b544"/><path d="M222.741,24.848A5.874,5.874,0,0,0,228.9,26.02a5.488,5.488,0,0,0,2.931-7.327,5.814,5.814,0,0,0-7.034-3.224c-1.172-2.345-4.1-3.224-6.741-2.345" transform="translate(-218.052 -12.791)" fill="#e2b544"/></g><g transform="translate(108.178 6.409)"><ellipse cx="0.879" cy="2.051" rx="0.879" ry="2.051" transform="matrix(-0.858, -0.513, 0.513, -0.858, 1.509, 10.433)" fill="#fff0b0"/><path d="M213.37,17.572c.293.293.293,1.172-.293,2.051s-1.172,1.465-1.758,1.172c-.293-.293-.293-1.172.293-2.051S213.077,17.279,213.37,17.572Z" transform="translate(-208.218 -17.496)" fill="#fff0b0"/></g><path d="M386.262,145.3a4.776,4.776,0,0,0-4.689-4.4c-2.345,0-4.689,1.465-4.982,3.81a5.084,5.084,0,0,0-4.982,4.689c-.293,2.638,2.051,4.982,4.689,5.275a4.972,4.972,0,0,0,4.689-2.638,4.763,4.763,0,0,0,4.4,3.224c2.638.293,4.982-2.051,5.275-4.689A5.117,5.117,0,0,0,386.262,145.3Z" transform="translate(-201.717 -89.286)" fill="#efd27f"/><g transform="translate(174.581 51.325)"><path d="M384.452,161.482a4.972,4.972,0,0,0,4.689-2.638,4.763,4.763,0,0,0,4.4,3.224c2.638.293,4.982-2.051,5.275-4.689s-1.758-4.689-4.4-5.275" transform="translate(-384.452 -147.708)" fill="#e2b544"/><path d="M397.252,151.241a4.763,4.763,0,0,0,4.4,3.224c2.638.293,4.982-2.051,5.275-4.689s-1.758-4.689-4.4-5.275a4.776,4.776,0,0,0-4.689-4.4" transform="translate(-392.563 -140.104)" fill="#e2b544"/></g><g transform="translate(171.574 52.304)"><path d="M379.544,154.751c.293.293-.293,1.172-1.172,1.758s-1.758.586-2.051.293.293-1.172,1.172-1.758S379.251,154.165,379.544,154.751Z" transform="translate(-376.244 -150.163)" fill="#fff0b0"/><path d="M392.555,142.971c.293.293-.293.879-.879,1.465a1.413,1.413,0,0,1-1.758.293c-.293-.293.293-.879.879-1.465C391.676,142.678,392.262,142.678,392.555,142.971Z" transform="translate(-384.859 -142.779)" fill="#fff0b0"/></g><path d="M241.462,194.9a4.776,4.776,0,0,0-4.689-4.4c-2.345,0-4.689,1.465-4.982,3.81A5.084,5.084,0,0,0,226.809,199c-.293,2.638,2.051,4.982,4.689,5.275a4.972,4.972,0,0,0,4.689-2.638,4.763,4.763,0,0,0,4.4,3.224c2.638.293,4.982-2.051,5.275-4.689A5.117,5.117,0,0,0,241.462,194.9Z" transform="translate(-109.962 -120.716)" fill="#efd27f"/><g transform="translate(121.536 69.495)"><path d="M239.652,211.082a4.972,4.972,0,0,0,4.689-2.638,4.763,4.763,0,0,0,4.4,3.224c2.638.293,4.982-2.051,5.275-4.689s-1.758-4.689-4.4-5.275" transform="translate(-239.652 -197.308)" fill="#e2b544"/><path d="M252.452,200.841a4.763,4.763,0,0,0,4.4,3.224c2.638.293,4.982-2.051,5.275-4.689s-1.758-4.689-4.4-5.275a4.776,4.776,0,0,0-4.689-4.4" transform="translate(-247.763 -189.704)" fill="#e2b544"/></g><g transform="translate(118.425 70.474)"><ellipse cx="0.879" cy="1.758" rx="0.879" ry="1.758" transform="matrix(-0.547, -0.837, 0.837, -0.547, 0.962, 7.21)" fill="#fff0b0"/><path d="M247.755,192.571c.293.293-.293.879-.879,1.465a1.413,1.413,0,0,1-1.758.293c-.293-.293.293-.879.879-1.465C246.876,192.278,247.755,192.278,247.755,192.571Z" transform="translate(-239.955 -192.379)" fill="#fff0b0"/></g><path d="M358.262,94.1a4.776,4.776,0,0,0-4.689-4.4c-2.345,0-4.689,1.465-4.982,3.81a5.084,5.084,0,0,0-4.982,4.689c-.293,2.638,2.051,4.982,4.689,5.275a4.972,4.972,0,0,0,4.689-2.638,4.763,4.763,0,0,0,4.4,3.224c2.638.293,4.982-2.051,5.275-4.689A4.892,4.892,0,0,0,358.262,94.1Z" transform="translate(-183.974 -56.843)" fill="#efd27f"/><g transform="translate(164.617 32.568)"><path d="M357.252,110.282a4.972,4.972,0,0,0,4.689-2.638,4.763,4.763,0,0,0,4.4,3.224c2.638.293,4.982-2.051,5.275-4.689s-1.758-4.689-4.4-5.275" transform="translate(-357.252 -96.508)" fill="#e2b544"/><path d="M370.052,100.04a4.763,4.763,0,0,0,4.4,3.224c2.638.293,4.982-2.051,5.275-4.689s-1.758-4.689-4.4-5.275a4.776,4.776,0,0,0-4.689-4.4" transform="translate(-365.363 -88.904)" fill="#e2b544"/></g><g transform="translate(161.61 33.548)"><path d="M352.344,103.551c.293.293-.293,1.172-1.172,1.758s-1.758.586-2.051.293.293-1.172,1.172-1.758S352.051,102.965,352.344,103.551Z" transform="translate(-349.044 -98.963)" fill="#fff0b0"/><path d="M364.555,91.771c.293.293-.293.879-.879,1.465a1.413,1.413,0,0,1-1.758.293c-.293-.293.293-.879.879-1.465C363.676,91.478,364.555,91.478,364.555,91.771Z" transform="translate(-357.152 -91.579)" fill="#fff0b0"/></g><path d="M212.23,81.435c-.293-1.465-1.465-2.931-2.931-2.931a2.956,2.956,0,0,0-3.224,2.638,3.21,3.21,0,0,0-3.224,2.931,3.481,3.481,0,0,0,2.931,3.517,3.367,3.367,0,0,0,3.224-1.758,2.911,2.911,0,0,0,2.931,2.051,3.481,3.481,0,0,0,3.517-2.931A4.432,4.432,0,0,0,212.23,81.435Z" transform="translate(-94.797 -49.745)" fill="#efd27f"/><g transform="translate(110.693 28.759)"><path d="M210.052,92.658a3.367,3.367,0,0,0,3.224-1.758,2.911,2.911,0,0,0,2.931,2.051,3.237,3.237,0,1,0,.586-6.447" transform="translate(-210.052 -83.573)" fill="#e2b544"/><path d="M218.852,85.831a2.911,2.911,0,0,0,2.931,2.051,3.237,3.237,0,1,0,.586-6.447c-.293-1.465-1.465-2.931-2.931-2.931" transform="translate(-215.628 -78.504)" fill="#e2b544"/></g><g transform="translate(109.113 29.223)"><path d="M207.612,87.771c.293.293-.293.879-.586,1.172-.586.293-1.172.586-1.172.293-.293-.293,0-.879.586-1.172A.725.725,0,0,1,207.612,87.771Z" transform="translate(-205.738 -84.719)" fill="#fff0b0"/><path d="M215.81,79.894c.293.293,0,.586-.586.879a2.215,2.215,0,0,1-1.172.293c0-.293,0-.586.586-.879S215.517,79.6,215.81,79.894Z" transform="translate(-211.006 -79.773)" fill="#fff0b0"/></g><path d="M314.63,133.435c-.293-1.465-1.465-2.931-2.931-2.931a3.141,3.141,0,0,0-3.224,2.638,3.21,3.21,0,0,0-3.224,2.931,3.481,3.481,0,0,0,2.931,3.517,3.367,3.367,0,0,0,3.224-1.758,2.911,2.911,0,0,0,2.931,2.051,3.481,3.481,0,0,0,3.517-2.931C317.561,134.9,316.388,133.435,314.63,133.435Z" transform="translate(-159.684 -82.696)" fill="#efd27f"/><g transform="translate(148.498 47.515)"><path d="M313.252,144.658a3.367,3.367,0,0,0,3.224-1.758,2.911,2.911,0,0,0,2.931,2.051,3.237,3.237,0,1,0,.586-6.447" transform="translate(-313.252 -135.28)" fill="#e2b544"/><path d="M321.252,137.031a2.911,2.911,0,0,0,2.931,2.051,3.237,3.237,0,0,0,.586-6.447c-.293-1.465-1.465-2.931-2.931-2.931" transform="translate(-318.321 -129.704)" fill="#e2b544"/></g><g transform="translate(146.66 48.201)"><path d="M310.072,139.3c.293.293-.293.879-.586,1.172-.586.293-1.172.586-1.172.293-.293-.293.293-.879.586-1.172A2.92,2.92,0,0,1,310.072,139.3Z" transform="translate(-308.234 -136.474)" fill="#fff0b0"/><path d="M318.21,131.771c.293.293,0,.586-.586.879a2.215,2.215,0,0,1-1.172.293c0-.293,0-.586.586-.879C317.624,131.478,318.21,131.478,318.21,131.771Z" transform="translate(-313.441 -131.579)" fill="#fff0b0"/></g><path d="M102.668,140.053c-1.465-2.345-4.4-3.517-6.741-2.345a5.557,5.557,0,0,0-3.224,6.447,5.615,5.615,0,0,0-2.638,7.327,5.488,5.488,0,0,0,7.327,2.931,5.789,5.789,0,0,0,3.517-5.275,5.753,5.753,0,0,0,6.154,1.172,5.488,5.488,0,0,0,2.931-7.327A6.163,6.163,0,0,0,102.668,140.053Z" transform="translate(-23.04 -86.97)" fill="#efd27f"/><g transform="translate(72.887 50.279)"><path d="M110.052,158.315a5.789,5.789,0,0,0,3.517-5.275,5.753,5.753,0,0,0,6.154,1.172,5.488,5.488,0,0,0,2.931-7.327,5.814,5.814,0,0,0-7.034-3.224" transform="translate(-108.88 -141.151)" fill="#e2b544"/><path d="M111.541,149.431A5.753,5.753,0,0,0,117.7,150.6a5.488,5.488,0,0,0,2.931-7.327,5.814,5.814,0,0,0-7.034-3.224c-1.465-2.345-4.4-3.517-6.741-2.345" transform="translate(-106.852 -137.249)" fill="#e2b544"/></g><g transform="translate(67.879 52.128)"><path d="M95.551,159.972c.586.293.293,1.172-.293,2.345-.586.879-1.465,1.465-1.758,1.172-.586-.293-.293-1.172.293-2.345C94.085,160.265,94.965,159.679,95.551,159.972Z" transform="translate(-93.18 -153.448)" fill="#fff0b0"/><path d="M102.17,142.372c.293.293.293,1.172-.293,2.051s-1.172,1.465-1.758,1.172c-.293-.293-.293-1.172.293-2.051S101.877,142.079,102.17,142.372Z" transform="translate(-97.455 -142.296)" fill="#fff0b0"/></g><path d="M219.783,121.824a7.541,7.541,0,0,0-8.5-5.861,8.128,8.128,0,0,0-7.327,7.327,8.023,8.023,0,0,0-6.741,8.5,8.177,8.177,0,0,0,8.792,7.327,8.029,8.029,0,0,0,6.741-5.275,7.951,7.951,0,0,0,7.62,4.1,8.177,8.177,0,0,0,7.327-8.792A7.757,7.757,0,0,0,219.783,121.824Z" transform="translate(-91.213 -73.43)" fill="#efd27f"/><g transform="translate(114.796 42.158)"><path d="M221.252,149.395a8.029,8.029,0,0,0,6.741-5.275,7.951,7.951,0,0,0,7.62,4.1,8.177,8.177,0,0,0,7.327-8.792,8.047,8.047,0,0,0-8.206-7.327" transform="translate(-221.252 -125.868)" fill="#e2b544"/><path d="M236.61,133.04a7.951,7.951,0,0,0,7.62,4.1,8.177,8.177,0,0,0,7.327-8.792,8.047,8.047,0,0,0-8.206-7.327,7.541,7.541,0,0,0-8.5-5.861" transform="translate(-229.87 -115.081)" fill="#e2b544"/></g><g transform="translate(108.71 43.888)"><path d="M209.259,141.2c.586.586,0,1.758-1.172,2.931s-2.638,1.465-3.224.879,0-1.758,1.465-2.931C207.5,140.9,208.673,140.611,209.259,141.2Z" transform="translate(-204.639 -133.174)" fill="#fff0b0"/><path d="M226.479,119.914c.586.586,0,1.758-1.172,2.638s-2.345,1.172-2.638.879c-.293-.586,0-1.758,1.172-2.638S226.186,119.621,226.479,119.914Z" transform="translate(-215.997 -119.804)" fill="#fff0b0"/></g><path d="M273.964,61.982a7.862,7.862,0,0,0-7.034-7.62,7.774,7.774,0,0,0-8.5,5.568,8.025,8.025,0,0,0-8.5,7.034,8.192,8.192,0,0,0,7.034,9.085,8.461,8.461,0,0,0,7.913-3.81,7.886,7.886,0,0,0,6.741,5.568,8.192,8.192,0,0,0,9.085-7.034C280.7,66.378,278.067,62.568,273.964,61.982Z" transform="translate(-124.587 -34.396)" fill="#efd27f"/><g transform="translate(132.087 19.674)"><path d="M268.452,88.571a8.461,8.461,0,0,0,7.913-3.81,7.885,7.885,0,0,0,6.741,5.568A8.192,8.192,0,0,0,292.19,83.3a8.032,8.032,0,0,0-6.447-8.792" transform="translate(-268.452 -66.884)" fill="#e2b544"/><path d="M290.052,71.581a7.885,7.885,0,0,0,6.741,5.568,8.192,8.192,0,0,0,9.085-7.034,8.032,8.032,0,0,0-6.447-8.792A7.862,7.862,0,0,0,292.4,53.7" transform="translate(-282.139 -53.704)" fill="#e2b544"/></g><g transform="translate(128.221 20.992)"><path d="M263.23,74.6c.293.586-.586,1.758-2.051,2.638s-2.931.879-3.224.293.586-1.758,2.051-2.638S262.937,74.011,263.23,74.6Z" transform="translate(-257.899 -68.003)" fill="#fff0b0"/><path d="M285.521,57.744c.293.586-.293,1.465-1.758,2.345-1.172.586-2.345.586-2.638,0s.293-1.465,1.758-2.345C284.056,57.157,285.228,57.157,285.521,57.744Z" transform="translate(-272.57 -57.304)" fill="#fff0b0"/></g><path d="M317.964,170.782a7.862,7.862,0,0,0-7.034-7.62,7.774,7.774,0,0,0-8.5,5.568,8.025,8.025,0,0,0-8.5,7.034,8.2,8.2,0,0,0,6.741,9.085,8.461,8.461,0,0,0,7.913-3.81,7.885,7.885,0,0,0,6.741,5.568,8.2,8.2,0,0,0,9.085-6.741C324.7,175.178,322.067,171.368,317.964,170.782Z" transform="translate(-152.468 -103.339)" fill="#efd27f"/><g transform="translate(148.205 59.824)"><path d="M312.452,197.878a8.461,8.461,0,0,0,7.913-3.81,7.885,7.885,0,0,0,6.741,5.568,8.2,8.2,0,0,0,9.085-6.741,8.032,8.032,0,0,0-6.447-8.792" transform="translate(-312.452 -176.484)" fill="#e2b544"/><path d="M334.052,180.888a7.886,7.886,0,0,0,6.741,5.568,8.2,8.2,0,0,0,9.085-6.741,8.032,8.032,0,0,0-6.447-8.792,7.862,7.862,0,0,0-7.034-7.62" transform="translate(-326.139 -163.304)" fill="#e2b544"/></g><g transform="translate(144.632 60.676)"><path d="M308.03,183.4c.293.586-.586,1.758-2.051,2.638s-2.931.879-3.224.293.586-1.758,2.051-2.638C305.979,182.811,307.444,182.811,308.03,183.4Z" transform="translate(-302.699 -176.63)" fill="#fff0b0"/><path d="M329.521,165.951c.293.586-.293,1.465-1.758,2.345-1.172.586-2.345.879-2.638.293s.293-1.465,1.758-2.345C328.056,165.658,329.228,165.365,329.521,165.951Z" transform="translate(-316.863 -165.632)" fill="#fff0b0"/></g><path d="M131.564,71.582a7.862,7.862,0,0,0-7.034-7.62,7.774,7.774,0,0,0-8.5,5.568,8.025,8.025,0,0,0-8.5,7.034,8.192,8.192,0,0,0,7.034,9.085,8.461,8.461,0,0,0,7.913-3.81,7.885,7.885,0,0,0,6.741,5.568,8.2,8.2,0,0,0,9.085-6.741C138.3,76.271,135.667,72.461,131.564,71.582Z" transform="translate(-34.352 -40.479)" fill="#efd27f"/><g transform="translate(79.921 23.483)"><path d="M126.052,98.678a8.461,8.461,0,0,0,7.913-3.81,7.885,7.885,0,0,0,6.741,5.568A8.2,8.2,0,0,0,149.79,93.7a8.032,8.032,0,0,0-6.447-8.792" transform="translate(-126.052 -77.284)" fill="#e2b544"/><path d="M147.652,81.688a7.885,7.885,0,0,0,6.741,5.568,8.2,8.2,0,0,0,9.085-6.741,8.032,8.032,0,0,0-6.447-8.792A7.862,7.862,0,0,0,150,64.1" transform="translate(-139.739 -64.104)" fill="#e2b544"/></g><g transform="translate(76.055 24.54)"><path d="M120.83,84.786c.293.586-.586,1.758-2.051,2.638s-2.931.879-3.224.293.586-1.758,2.051-2.638S120.537,83.907,120.83,84.786Z" transform="translate(-115.499 -77.93)" fill="#fff0b0"/><path d="M142.614,67.4c.293.586-.293,1.465-1.758,2.345-1.172.586-2.345.879-2.931.293-.293-.586.293-1.465,1.758-2.345S142.321,66.811,142.614,67.4Z" transform="translate(-129.663 -66.989)" fill="#fff0b0"/></g></g></svg>