<svg xmlns="http://www.w3.org/2000/svg" width="18.875" height="26.861" viewBox="0 0 18.875 26.861"><g transform="translate(-71.16)"><path d="M89.926,159.663a.431.431,0,0,0-.321-.143H71.594a.433.433,0,0,0-.43.479l1.805,17.069a.432.432,0,0,0,.43.388H87.8a.432.432,0,0,0,.43-.388L90.035,160A.434.434,0,0,0,89.926,159.663ZM77.409,176.589l-.857-16.2h3.615v16.2Zm-5.335-16.2h3.613l.857,16.2H73.788Zm15.337,16.2H84.655l.382-7.213a.432.432,0,1,0-.863-.046l-.384,7.259H81.032v-16.2h3.615l-.382,7.213a.433.433,0,0,0,.409.456H84.7a.433.433,0,0,0,.431-.41l.384-7.259h3.613Z" transform="translate(-0.002 -150.594)" fill="#fff"/><path d="M227.933,70a.433.433,0,1,0,0,.866,1.633,1.633,0,0,1,1.46.894.433.433,0,0,0,.771-.395A2.5,2.5,0,0,0,227.933,70Z" transform="translate(-147.339 -65.956)" fill="#fff"/><path d="M147.546,111.327a.433.433,0,1,0,.771.395,1.633,1.633,0,0,1,1.46-.894.433.433,0,0,0,0-.866A2.5,2.5,0,0,0,147.546,111.327Z" transform="translate(-71.943 -103.682)" fill="#fff"/><path d="M71.562,8.347h.031a.433.433,0,0,0,.431-.4,1.663,1.663,0,0,1,.037-.252A1.631,1.631,0,0,1,73.254,6.47a.434.434,0,0,0,.287-.6,1.637,1.637,0,0,1,1.815-2.282.432.432,0,0,0,.518-.414A1.634,1.634,0,0,1,78.5,1.908a.431.431,0,0,0,.646-.148,1.632,1.632,0,0,1,2.911,0,.431.431,0,0,0,.646.148,1.634,1.634,0,0,1,2.623,1.267.432.432,0,0,0,.518.414,1.637,1.637,0,0,1,1.815,2.282.433.433,0,0,0,.287.6,1.631,1.631,0,0,1,1.193,1.224,1.664,1.664,0,0,1,.037.252.432.432,0,1,0,.862-.061,2.534,2.534,0,0,0-.057-.383,2.493,2.493,0,0,0-1.383-1.715,2.5,2.5,0,0,0-2.463-3.1A2.5,2.5,0,0,0,82.573.971a2.495,2.495,0,0,0-3.95,0,2.5,2.5,0,0,0-3.559,1.719,2.5,2.5,0,0,0-2.463,3.1A2.493,2.493,0,0,0,71.218,7.5a2.531,2.531,0,0,0-.057.383A.433.433,0,0,0,71.562,8.347Z" transform="translate(0)" fill="#fff"/></g></svg>